<?xml version="1.0" standalone="no"?><!DOCTYPE svg PUBLIC "-//W3C//DTD SVG 1.1//EN" "http://www.w3.org/Graphics/SVG/1.1/DTD/svg11.dtd"><svg t="1682602094954" class="icon" viewBox="0 0 1024 1024" version="1.1" xmlns="http://www.w3.org/2000/svg" p-id="3759" xmlns:xlink="http://www.w3.org/1999/xlink" width="80" height="80"><path d="M118.84651895 397.91762699v-47.86216325c2.27915077-7.80609083 6.89443111-14.70052193 7.00838868-23.41827345a55.49731866 55.49731866 0 0 1 5.41298247-16.69477777c0.34187276-0.9116607 1.48144766-1.53842645 2.0512356-2.39310835a20.85422872 20.85422872 0 0 0 2.90591653-4.61528033c1.1395749-2.8489387 0-6.55255834 4.72923792-7.86306962a9.34451728 9.34451728 0 0 0 5.69787644-6.8944311c0-9.85732642 9.68639005-12.82022271 13.10511667-20.1135044 1.31051128-2.8489387 4.9001743-4.61528033 7.40723928-6.95140893s5.69787644-6.0397492 9.05962429-8.88868791a104.32812043 104.32812043 0 0 1 9.23055969-8.14796358c6.55255834-4.61528033 13.27605209-8.88868791 19.88558922-13.39000968 4.44434395-3.0768529 8.60379393-8.71775152 13.10511669-8.94566669 6.83745231-0.39885155 9.57243246-6.09672799 15.04239372-7.86306963 6.66651593-2.16519318 12.30741357-7.92004842 18.9739295-9.45847486 8.03400601-1.82332043 14.30167038-9.2305597 23.41827248-7.23630387 0.34187276 0 1.1395749 0 1.25353346-0.34187179 2.33612956-6.49557954 8.0909848-3.9885136 12.53532874-4.78621672 1.36749008 0 3.53268325 0 3.87455602-0.7977031 3.0768529-6.15370678 8.83170911-3.9885136 13.67490365-4.72923695 1.53842645 0 4.15944998 0 4.50132274-0.79770311 2.67800233-6.32464317 8.37587876-3.81757723 12.87720054-4.61528033 2.9059175-0.51280914 7.12234531 0 8.54681514-1.42446887 4.55830154-5.69787644 10.65502953-3.87455602 16.18196959-4.72923792 2.8489387-0.45583035 5.69787644-0.68374553 8.66077274-1.02561731v-8.54681514a29.97083083 29.97083083 0 0 1-5.18506827-3.87455602c-2.45008715-2.73498112-4.27340757-6.09672799-6.78047255-8.71775152-4.9001743-5.1280885-10.37013556-9.62941125-15.09937348-14.87145734-3.36174688-3.87455602-5.69787644-8.88868791-8.88868694-12.70626513-4.38736516-4.78621672-9.68639005-8.77473032-14.35864917-13.33303089-5.69787644-5.69787644-10.9969023-11.39575287-16.52384234-17.09363028-2.16519318-2.27915077-4.50132274-4.44434395-6.43860076-6.89443111s-4.38736516-6.55255834-6.8374523-9.57243245c-3.76059843-4.61528033-7.80609083-8.9456667-11.39575289-13.50396727a91.16602592 91.16602592 0 0 0-6.60953713-8.66077272c-4.61528033-4.50132274-10.14222039-8.14796358-14.58656338-12.82022272s-8.60379393-10.48409315-13.04813788-15.78311803A69.96992445 69.96992445 0 0 0 225.05493956 21.17402488c-0.96863949-0.9116607-1.82332043-1.93727801-2.73498111-2.90591653a14.01677641 14.01677641 0 0 1 3.58966205-2.16519318 39.03045511 39.03045511 0 0 1 6.89443109 0.05697879h101.8210545a11.90856202 11.90856202 0 0 1 12.8772015 11.39575289 10.9969023 10.9969023 0 0 0 1.36749007 4.38736515c3.93153482 5.69787644 7.97702721 11.39575287 13.04813789 18.68903553h400.38978976l18.46112037-34.18725959h84.15763723c0 3.64664084 1.31051128 8.31889997 0 9.62941124-6.89443111 5.69787644-3.53268325 13.56094606-4.72923695 20.34141957-0.39885155 2.45008715 0.34187276 6.43860076-0.9116607 7.17932411-8.43285756 5.07110972-2.9059175 15.55520286-9.62941124 22.1077612-4.72923792 4.67225913-4.95715309 14.01677641-7.35026145 21.19610148a18.63205674 18.63205674 0 0 1-2.39310739 3.70361964c-2.73498112 4.10247119-5.69787644 7.97702721-8.09098479 12.30741356s-4.8431955 10.25617797-7.23630387 15.38426649c0 0-0.34187276 0-0.51280914 0.39885155-3.0768529 3.01987508-6.38162196 5.69787644-9.1735809 9.00264549-4.10247119 4.78621672-7.40723927 10.31315677-11.85158322 14.70052193-6.89443111 6.83745231-14.47260675 13.04813789-21.82286724 19.48673767s-11.39575287 14.81447951-21.65193182 15.49822408c-0.56978794 0-1.53842645 0.62676673-1.53842646 0.96863948 0 5.18506729-4.15944998 3.58966205-6.83745134 4.33038636-1.48144766 0.39885155-3.53268325 0.45583035-4.21642878 1.42446887-4.21642878 6.0397492-11.39575287 6.0397492-17.09363028 9.1735809a111.27953033 111.27953033 0 0 1-22.39265517 6.9514099 2.33612956 2.33612956 0 0 0-1.19655369 0.56978793c-3.47570447 5.29902488-9.00264549 4.50132274-14.130734 4.84319454s-10.71200832-0.8546819-13.10511667 1.59540524a16.068012 16.068012 0 0 1-13.2190733 4.04549241c-7.52119686 0.39885155-15.09937348 0-22.79150673 0.7977031-4.38736516 0.51280914-8.48983635 3.53268325-12.9341803 4.0454924-6.32464317 0.68374553-12.64928634-2.62102353-18.46112036-3.30476809a482.61014899 482.61014899 0 0 0-55.26940252-1.19655465c-1.42446886 0-2.79195991 1.88029921-5.18506827 3.53268422 4.61528033 1.48144766 8.0909848 1.59540525 9.97128401 3.41872567 7.00838869 6.49557954 13.44698847 13.61792485 20.1135044 20.45537716a81.59359348 81.59359348 0 0 0 6.9514099 6.38162196c3.0768529 2.39310835 6.49557954 4.38736516 9.51545366 6.89443013 4.50132274 3.64664084 8.77473032 7.63515444 13.16209547 11.39575385s10.0852416 8.43285756 14.98541493 12.87720053c2.8489387 2.62102353 5.07110972 5.69787644 7.92004938 8.60379395s6.49557954 4.67225913 9.2305597 7.52119686c4.61528033 4.78621672 8.48983635 10.31315677 13.27605209 14.87145831s10.82596591 7.97702721 15.55520383 12.64928633c6.49557954 6.43860076 12.25043478 13.61792485 18.29018398 20.45537716a59.42885348 59.42885348 0 0 0 6.21068558 6.83745134c3.19081049 2.62102353 7.06536748 4.38736516 10.0852416 7.17932507 5.69787644 5.01413188 10.59805074 10.37013556 15.66916045 15.78311803 2.45008715 2.62102353 4.44434395 5.69787644 6.72349472 8.43285756s5.01413188 5.98277041 7.74911203 8.77472935 6.09672799 5.69787644 9.05962332 8.60379393 5.69787644 5.69787644 8.26192117 9.0026455 6.26766437 7.80609083 9.23056066 11.85158322c0.74072431 1.02561731 0.51280914 2.8489387 1.36749008 3.70361963 6.72349472 6.49557954 13.67490365 12.76324392 20.34141958 19.31580129 2.39310835 2.33612956 5.69787644 5.07110972 6.15370678 7.97702721 1.36749008 9.05962428 10.19919918 12.25043478 13.95979761 19.37278106a116.00876825 116.00876825 0 0 0 9.57243246 13.04813692c0.8546819 1.1395749 0.96863949 2.96289629 1.93727801 3.9315348 4.10247119 3.76059843 9.40149607 6.49557954 9.91430522 13.04813789 0 1.1395749 1.19655369 2.27915077 2.0512356 3.1908105a54.01587004 54.01587004 0 0 1 7.92004841 8.26192117c4.72923792 7.92004842 8.77473032 16.23894838 13.10511668 24.38691198a7.92004842 7.92004842 0 0 0 0.62676673 1.19655466c4.72923792 4.8431955 9.97128401 9.28753848 10.14222038 17.09362932 0 0.56978794 0.51280914 1.65238404 0.79770214 1.65238403 5.69787644 0 3.76059843 4.55830154 4.61528034 7.46421905 0.34187276 1.19655369 0.39885155 3.0768529 1.19655369 3.53268325 6.26766437 3.53268325 6.0397492 10.9399235 9.57243342 16.18196959s4.10247119 14.13073399 7.74911204 20.28444078a24.67180594 24.67180594 0 0 1 4.78621575 13.33303089c0 0.62676673 0.34187276 1.70936284 0.74072431 1.76634259 5.69787644 1.42446886 3.70361964 6.26766437 4.50132274 9.97128401a58.2892776 58.2892776 0 0 0 2.27915077 8.03400601 29.79989444 29.79989444 0 0 1 2.79195894 6.38162099c0.56978794 4.95715309 0.39885155 10.02826281 0.74072432 14.98541589a20.1135044 20.1135044 0 0 0 1.53842646 5.69787644c0.96863949 2.45008715 3.24778929 4.78621672 3.30476905 7.23630386v45.12718214a16.46686355 16.46686355 0 0 1-1.02561829 5.18506826c-1.19655369 3.36174688-3.0768529 6.49557954-3.9885136 9.91430522-2.39310835 9.11660211-4.38736516 18.34716277-6.55255835 27.57772246a3.36174688 3.36174688 0 0 1-0.68374455 1.13957588c-5.07110972 6.95140989-9.97128401 14.0737552-15.38426745 20.79724895a174.58293982 174.58293982 0 0 1-14.18771279 15.55520383c-4.50132274 4.44434395-9.40149607 8.43285756-14.24469157 12.47834995-3.81757723 3.19081049-7.74911203 6.21068558-11.39575288 9.23055969-2.05123559 1.59540525-4.0454924 3.24778929-6.15370679 4.72923792a32.81976953 32.81976953 0 0 1-10.0282628 6.49557858c-7.46421807 1.76634163-13.33303089 8.66077273-21.93682483 6.72349472 0 0-1.02561731 0.34187276-1.08259706 0.62676673-0.9116607 5.69787644-5.69787644 3.76059843-9.05962332 4.50132275a21.65193086 21.65193086 0 0 0-6.55255835 1.59540524 95.89526384 95.89526384 0 0 1-30.1417672 9.51545367c-5.29902488 1.19655369-10.9399235 0.74072431-16.29592718 1.70936283s-11.39575287 3.47570447-17.09363028 3.93153481a208.37134787 208.37134787 0 0 1-27.97657402 0 82.84712595 82.84712595 0 0 1-13.95979762-3.70361964 34.81402633 34.81402633 0 0 0-8.034006-0.96863851c-0.96863949 0-2.22217198 1.25353249-2.67800232 2.22217198s0.79770311 1.93727801 1.53842743 2.56404376a79.3714215 79.3714215 0 0 1 9.23055968 6.8944311 170.93629897 170.93629897 0 0 0 13.27605307 15.15635131 78.63069718 78.63069718 0 0 1 16.69477776 17.09363028 24.27295439 24.27295439 0 0 0 6.38162196 6.38162197 33.38955649 33.38955649 0 0 1 10.37013557 12.99115812 53.44608307 53.44608307 0 0 0 6.8374523 9.85732739c2.62102353 2.96289629 7.12234531 4.78621672 8.54681418 8.09098479a37.49202768 37.49202768 0 0 0 12.02251961 15.95405443 25.18461509 25.18461509 0 0 1 6.09672799 8.94566572c1.36749008 2.62102353 0 6.32464317 4.8431955 7.57817565 2.56404474 0.62676673 4.27340757 5.35600368 6.15370679 8.37587876 2.73498112 4.44434395 4.27340757 10.31315677 8.14796359 13.10511669s3.81757723 5.69787644 2.27915076 8.37587876a8.83170911 8.83170911 0 0 1-6.49557954 3.07685291H662.25301148c-1.76634163 0-4.50132274 0-5.0711097-0.96863852-2.33612956-4.15944998-7.35026048-5.29902488-9.2305597-10.88294471a15.49822406 15.49822406 0 0 0-16.18196959-10.48409315c-46.72258834 0.74072431-93.4451767 0.51280914-140.11078625 0-6.72349472 0-9.11660211 4.67225913-13.16209548 7.69213324s-6.83745231 9.28753848-13.33303089 9.91430619c-1.02561731 0-2.9059175 0.51280914-2.96289629 0.96863851-0.8546819 5.98277041-5.69787644 4.21642878-9.00264452 4.33038637a91.67883507 91.67883507 0 0 1-19.77163163 0 86.4937668 86.4937668 0 0 1-17.09363029-6.43860076s0-0.9116607-0.51280914-1.19655369A60.96727993 60.96727993 0 0 0 407.785842 990.21190106a18.00529002 18.00529002 0 0 0-9.74336884-5.41298247c-47.17841869-0.34187276-94.35683642 0-141.53525512 0-6.72349472 0-9.34451728 5.24204609-11.39575287 9.80034763a18.91695071 18.91695071 0 0 1-15.09937349 12.30741357H169.89949366c-15.49822406 0-17.09363029 0.68374553-17.09363029-18.1192476 0-11.39575287 5.69787644-20.79724992 7.35026146-31.45227848a39.88513604 39.88513604 0 0 1 5.01413091-11.39575385c2.05123559-4.15944998 3.53268325-10.88294471 6.66651592-11.79460443 7.40723927-2.27915077 2.50706594-12.36439236 10.1422204-13.1620945-1.42446886-4.95715309 3.76059843-4.44434395 5.69787643-6.72349473a153.84266869 153.84266869 0 0 1 13.39000969-15.72613924c6.49557954-6.26766437 15.32728769-10.76898712 19.94256898-18.00529001 3.70361964-5.69787644 11.39575287-3.1338317 13.50396727-9.80034763a11.39575287 11.39575287 0 0 1 6.72349472-5.35600464c3.70361964-1.31051128 6.83745231-3.76059843 9.91430521-5.12808851 8.71775152-3.93153482 15.32728769-12.13647719 25.46950809-12.87720151 0.68374553 0 1.76634163 0 1.88029921-0.51280914 3.0768529-8.20494238 12.82022271-3.9885136 17.89133243-9.74336883 2.73498112-3.01987508 9.05962428-1.76634163 14.0167764-4.78621574a103.01760915 103.01760915 0 0 1 19.8855902-6.66651594 268.19905192 268.19905192 0 0 1 34.64308898-6.95140989c0.9116607 0 2.22217198 0 2.62102353-0.62676576 4.95715309-6.60953713 12.30741357-4.0454924 18.74601432-4.84319551 3.53268325-0.51280914 8.54681515 0 10.31315678-1.93727801a11.85158322 11.85158322 0 0 1 10.31315677-3.41872567c4.78621672 0 9.57243246 0 14.35864916-0.45583035a30.76853393 30.76853393 0 0 0 6.43859979-1.31051224 69.74201024 69.74201024 0 0 1 9.68639101-3.36174687c4.67225913-0.74072431 9.51545366-0.51280914 14.30167038-1.02561732 1.1395749 0 2.22217198-1.53842645 3.30476808-2.33612956a11.39575287 11.39575287 0 0 0-2.79195992-2.22217198 53.2181679 53.2181679 0 0 1-19.9995468-15.72613924c-2.50706594-2.62102353-5.24204609-6.66651593-8.20494239-6.95140989-9.11660211-1.02561731-12.47834995-9.51545366-19.37278009-13.44698848a128.88596878 128.88596878 0 0 1-19.03090829-16.01103321c-2.16519318-1.93727801-4.44434395-3.81757723-6.72349472-5.69787741s-6.43860076-4.61528033-9.34451728-7.29328168a87.74730026 87.74730026 0 0 0-7.80609082-8.66077273 115.78085307 115.78085307 0 0 1-26.55210516-22.79150576 39.88513604 39.88513604 0 0 0-6.49557955-6.26766437c-5.01413188-4.21642878-10.54107195-7.97702721-15.2133301-12.53532875s-8.77473032-10.71200832-13.61792485-15.55520286-10.71200832-8.14796358-15.15635228-13.04813789a178.05864428 178.05864428 0 0 0-16.52384235-17.09363028c-6.15370678-5.29902488-10.59805074-12.53532875-17.49248087-17.09362932a42.56313836 42.56313836 0 0 1-5.69787644-7.35026048c-2.50706594-3.0768529-5.1280885-6.09672799-7.80609083-9.00264549s-5.69787644-5.69787644-8.31889996-8.77473031-5.07110972-8.37587876-7.97702722-12.30741358a65.69651785 65.69651785 0 0 0-7.40724023-7.00838771c-2.73498112-2.73498112-5.69787644-5.35600368-8.26192118-8.20494239-6.15370678-6.49557954-7.97702721-16.1249908-16.40988477-21.25308027-3.0768529-1.82332043-4.50132274-6.43860076-6.60953616-9.80034763s-4.78621672-8.26192117-7.29328265-12.30741357c-3.24778929-5.18506729-6.66651593-10.31315677-10.02826281-15.44124528-1.53842645-2.39310835-3.19081049-4.78621672-4.61527937-7.29328168a53.84493365 53.84493365 0 0 1-6.72349472-12.25043478c-1.48144766-5.69787644-8.43285756-8.60379393-6.66651592-15.38426745 0 0-0.79770311-0.39885155-1.02561731-0.74072335a43.81667085 43.81667085 0 0 1-3.58966303-6.09672799c-0.74072431-1.53842645-0.39885155-4.61528033-1.1395749-4.9001743-5.24204609-1.53842645-4.0454924-5.69787644-4.67225912-9.51545366a17.72039604 17.72039604 0 0 0-1.31051128-5.69787644 70.65366997 70.65366997 0 0 1-9.80034763-29.17312869c-0.79770311-7.1793241-1.25353249-13.78886124-6.49557954-18.57507794z m239.31081817 128.60107579v-10.25617798a44.67135275 44.67135275 0 0 1 1.65238404-10.08524159 66.20932602 66.20932602 0 0 1 4.44434396-9.85732644 64.49996319 64.49996319 0 0 1 3.9885136-6.95140989c2.22217198-3.36174688 5.01413188-6.32464317 6.83745134-9.80034762 3.24778929-6.32464317 6.21068558-12.70626513 14.24469158-14.01677642a2.73498112 2.73498112 0 0 0 1.82332043-0.7977031A22.79150672 22.79150672 0 0 1 411.7743556 454.61149935a5.69787644 5.69787644 0 0 0 3.70361964-1.19655369c6.49557954-6.43860076 14.41562796-3.64664084 21.70891062-2.84893871a107.17705914 107.17705914 0 0 1 16.35290597 4.44434395c3.01987508 0.79770311 7.23630289-0.8546819 7.92004841 4.33038636 0 0.51280914 1.88029921 0.9116607 2.90591653 1.08259611a13.04813789 13.04813789 0 0 1 8.20494238 4.27340757 91.96372904 91.96372904 0 0 0 7.97702721 7.0083887c3.64664084 2.96289629 7.40723927 6.49557954 11.90856201 0.62676575 0.79770311-0.96863949 3.53268325 0 5.29902586-0.68374455a18.17622639 18.17622639 0 0 0 4.0454924-1.76634163 38.232752 38.232752 0 0 1 6.49557955-3.58966302c6.66651593-2.22217198 13.44698847-4.10247119 20.22746199-6.15370679 0.34187276 0 0.45583035-0.79770311 0.79770214-0.96863851a62.67664276 62.67664276 0 0 1 7.40723927-4.10247119c2.22217198-0.96863949 4.8431955-1.02561731 7.12234627-1.99425681a236.06302792 236.06302792 0 0 0 21.93682483-9.80034763 37.89087924 37.89087924 0 0 1 19.03090829-6.49557954c0.34187276 0 0.96863949-0.56978794 0.96863852-0.85468191 0-5.1280885 4.33038637-3.41872567 7.06536748-4.10247119 1.48144766-0.34187276 4.21642878 0 4.33038636-0.85468093 1.25353249-5.69787644 5.69787644-3.81757723 9.28753849-4.55830153a21.59495206 21.59495206 0 0 0 5.69787644-1.42446888c5.69787644-2.96289629 10.42711436-6.66651593 15.95405442-9.34451825s11.79460443-4.33038637 17.54946064-6.83745134c1.1395749-0.45583035 2.56404474-3.41872567 2.16519317-3.9315348a43.41782027 43.41782027 0 0 0-6.49557954-6.43860076c-6.95140989-5.69787644-13.95979761-11.73762564-20.96818631-17.60643845a22.39265517 22.39265517 0 0 0-18.34716277-6.43860076c-18.00529002 2.45008715-36.2384952 0-54.41472158 4.72923695-14.01677641 3.64664084-29.45802168 1.65238404-44.21552241 2.50706594a9.97128401 9.97128401 0 0 0-6.8944311 3.07685388c-4.8431955 6.32464317-6.78047352 14.41562796-12.42137019 20.62631355A29.40104289 29.40104289 0 0 1 472.34278398 414.72636331c-1.65238404 0.62676673-4.50132274 0.96863949-4.72923695 1.937278-1.25353249 5.41298247-5.69787644 3.70361964-8.77473031 4.21642878-6.21068558 0.9116607-13.2190733-1.59540525-18.00529002 4.50132275-1.70936284-1.48144766-2.9059175-3.41872567-4.38736515-3.64664181a71.10950032 71.10950032 0 0 1-18.1762264-5.69787644 38.57462476 38.57462476 0 0 1-21.36703689-22.79150575h-27.52074464a12.02251961 12.02251961 0 0 0-3.81757723 1.0825961 34.58611116 34.58611116 0 0 1-9.57243244 3.24778929c-15.49822406 0.62676673-30.9964491 0.62676673-46.49467318 1.02561828a28.48938316 28.48938316 0 0 0-7.52119686 2.0512356 36.86526192 36.86526192 0 0 1-6.55255834 2.50706594c-20.96818631 1.9942568-42.50615957-2.10821439-63.13247311 5.69787644-4.21642878 1.59540525-6.60953713 2.33612956-5.29902489 7.12234531 1.9942568 6.89443111 3.64664084 13.84584003 5.69787644 20.62631354s4.50132274 12.64928634 6.78047254 18.91695071c0 0 0.39885155 0 0.51280915 0.39885155 1.48144766 2.96289629 3.1338317 5.69787644 4.33038636 8.88868693 0.79770311 1.82332043 0.39885155 4.21642878 1.42446887 5.69787644 2.96289629 5.01413188 6.72349472 9.57243246 9.57243342 14.64354314s3.30476808 10.9969023 6.95140892 14.0737552 3.0768529 9.34451728 5.98277042 11.39575287c7.00838869 5.69787644 7.29328168 15.15635228 15.32728865 20.11350537 5.69787644 3.64664084 5.69787644 12.70626513 11.73762564 17.54945967a11.05388109 11.05388109 0 0 0 11.90856202 2.22217198 82.04942285 82.04942285 0 0 1 9.34451728-4.44434396c2.50706594-1.1395749 4.9001743-2.39310835 7.35026145-3.53268325a17.77737484 17.77737484 0 0 1 4.50132178-2.10821439c7.63515444-1.19655369 13.44698847-8.37587876 21.87984699-6.78047352 0.45583035 0 1.02561731-0.74072431 1.53842646-1.19655369z m81.13776313 166.54893285a53.10421031 53.10421031 0 0 1 9.00264452 2.73498111 24.89972111 24.89972111 0 0 1 6.66651593 5.07110971 42.50615957 42.50615957 0 0 0 14.24469158 10.42711436 11.90856202 11.90856202 0 0 1 2.90591652 2.27915076 48.77382395 48.77382395 0 0 0 10.88294471 7.86306963c5.69787644 2.10821439 9.00264549 9.05962428 16.29592718 7.80609083 0 0 0.74072431 1.59540525 1.36749007 2.0512356a16.1249908 16.1249908 0 0 0 4.0454924 2.56404473c5.69787644 2.39310835 11.39575287 4.55830154 17.09363028 6.8374523 0.39885155 0 0.56978794 0.74072431 0.91165973 1.02561732a56.06710563 56.06710563 0 0 0 11.39575384 8.20494238 18.40414157 18.40414157 0 0 0 11.39575289 0c1.76634163-7.74911203 11.39575287-2.67800233 14.18771278-10.0282628 2.16519318-5.69787644 10.9399235-6.38162196 16.46686356-10.19919918a68.3745192 68.3745192 0 0 1 17.77737484-11.39575288c10.02826281-2.50706594 14.35864916-14.24469158 25.41253025-13.56094606 0.45583035 0 0.79770311-1.42446886 1.42446886-1.93727801a17.43550208 17.43550208 0 0 1 4.21642878-2.90591749c1.65238404-0.74072431 3.87455602-0.39885155 5.18506731-1.36749008 6.95140989-5.01413188 13.56094606-10.54107195 20.62631354-15.44124625 8.88868791-6.21068558 19.14486588-10.14222039 27.63470125-17.09362932a63.53132467 63.53132467 0 0 1 17.72039702-10.59805073c9.45847487-3.24778929 14.70052193-13.39000968 25.2985717-13.44698848 0.56978794 0 1.02561731-1.25353249 1.65238404-1.76634259a139.88287108 139.88287108 0 0 1 11.39575384-8.54681418c5.1280885-3.0768529 10.65502953-5.69787644 15.89707563-8.37587876 2.62102353-1.53842645 4.78621672-3.87455602 7.35026048-5.69787644a79.77027305 79.77027305 0 0 1 14.47260675-8.9456667c6.78047352-2.62102353 8.88868791-4.38736516 7.46421807-11.79460442a63.53132467 63.53132467 0 0 0-4.38736419-9.68639005c-2.67800233-7.1793241-5.07110972-14.47260675-7.57817662-21.70891062 0-0.39885155-0.34187276-1.02561731-0.68374456-1.1395749-7.12234531-2.39310835-3.30476808-11.39575287-9.17358186-15.15635227-3.64664084-2.56404474-3.36174688-10.48409315-6.95140893-13.67490364s-5.69787644-10.25617797-11.7946054-6.03974921c-4.27340757 2.8489387-9.40149607 3.64664084-13.2190733 6.15370679a61.87893966 61.87893966 0 0 1-18.74601433 10.71200833 51.28088989 51.28088989 0 0 0-12.36439236 5.69787643c-7.12234531 4.0454924-14.13073399 8.43285756-22.27869759 13.33303089v1.59540622c0 11.85158322-1.93727801 22.79150672-11.39575288 31.50925727a50.76808075 50.76808075 0 0 0-5.69787643 6.0397492 66.03838964 66.03838964 0 0 1-7.63515445 9.11660308 33.84538684 33.84538684 0 0 1-23.58920983 6.66651496c-13.61792485-0.68374553-28.48938316 3.53268325-38.85951873-10.19919918-0.39885155-0.51280914-2.50706594 0-3.53268326 0.34187276-5.69787644 2.9059175-11.39575287 6.09672799-17.09362931 8.8886879s-11.05388109 4.72923792-16.58082115 7.12234531c0 0-0.51280914 0-0.51280913 0.39885155 0 5.24204609-4.50132274 3.87455602-7.52119687 4.55830154-1.1395749 0-3.0768529 0.34187276-3.19081147 0.79770214-1.1395749 5.69787644-5.69787644 4.10247119-9.11660211 4.78621671-1.0825961 0-2.9059175 0.34187276-3.07685386 0.91166069-2.27915077 7.12234531-10.37013556 5.1280885-14.87145735 9.68639005s-11.73762564 4.95715309-17.77737483 7.35026048c-0.68374553 0-1.1395749 1.25353249-1.82332139 1.65238404-4.9001743 2.9059175-9.57243246 6.21068558-14.70052097 8.60379393s-11.85158322 4.50132274-17.83435362 6.78047352c-0.56978794 0-0.8546819 1.0825961-1.36749105 1.42446886-3.87455602 2.79195991-7.46421807 7.12234531-11.73762564 7.92004842-8.60379393 1.93727801-7.63515444 6.15370678-5.29902488 11.79460444zM557.86791226 329.82800175c-1.70936284 0-4.44434395 0-4.55830154-0.9116607-1.36749008-5.69787644-5.69787644-4.95715309-9.91430521-5.69787643-0.79770311 0-1.25353249-1.59540525-2.0512356-2.27915077a78.40278201 78.40278201 0 0 0-9.97128401-8.0909848c-5.29902488-3.01987508-11.39575287-4.55830154-16.52384235-7.86306962s-9.91430522-10.48409315-18.00529001-10.31315677a2.10821439 2.10821439 0 0 1-1.53842645-1.0825961c-0.39885155-4.95715309-4.50132274-3.24778929-7.17932411-4.21642878a25.41252929 25.41252929 0 0 1-4.33038636-2.79195991 19.54371647 19.54371647 0 0 0-3.47570543-2.33612956 165.23842157 165.23842157 0 0 1-18.97392853-7.35026048c-8.31889997-4.44434395-17.89133243-6.32464317-25.58346664-11.39575288a41.48054225 41.48054225 0 0 0-18.29018398-5.69787741c-0.51280914 0-0.9116607-0.9116607-1.48144766-1.19655369a26.26721119 26.26721119 0 0 0-6.55255833-3.1338317c-4.61528033-0.9116607-10.9399235 0.56978794-13.78886124-2.0512356a18.00529002 18.00529002 0 0 0-12.42137116-3.64664181c-5.69787644-0.62676673-11.39575287-1.0825961-17.09362932-2.10821439a85.46814949 85.46814949 0 0 0-10.54107195-3.1908105 212.70173423 212.70173423 0 0 0-30.42666116-0.39885155c-13.04813789 1.1395749-25.92533842 3.81757723-38.85951873 5.69787644-0.45583035 0-1.19655369 0-1.25353248 0.34187275-2.79195991 6.78047352-9.05962428 4.33038637-14.07375521 5.35600466a8.54681515 8.54681515 0 0 0-3.01987508 0.96863851c-4.50132274 3.30476808-8.9456667 6.60953713-13.33303089 10.02826281-2.10821439 1.65238404-3.9885136 3.70361964-5.69787643 5.69787644-4.9001743 4.38736516-11.39575287 7.92004842-14.30167038 13.39001064-3.9885136 7.63515444-7.86306962 15.32728769-11.85158322 22.79150576-2.9059175 5.69787644 0 13.67490365-6.03974921 18.63205674v41.36658467h24.2159756a11.39575287 11.39575287 0 0 0 3.24778928-1.19655466 29.0591711 29.0591711 0 0 1 8.37587877-3.41872567c15.27030889-0.56978794 30.54061875-0.68374553 45.58301248-1.02561732 1.9942568 0 4.95715309 0 5.6978774-0.8546819 3.9885136-5.07110972 9.40149607-3.70361964 14.41562699-3.81757722 12.53532875-0.39885155 25.0706575-0.45583035 37.60598625-0.74072432 1.9942568 0 5.07110972 0 5.69787643-0.85468093 3.58966205-5.18506729 8.83170911-3.76059843 13.61792486-3.9885136s10.88294471 0 15.95405442 0c7.29328168-19.37278008 27.86261644-38.85951872 48.14705818-40.56888156 21.82286723-1.82332043 44.04458603 15.66916045 51.28088891 29.85687324 18.57507794-0.68374553 37.71994286-1.0825961 56.97876633-2.56404474 4.33038637-0.11395759 11.05388109-1.76634163 10.31315677-9.34451729z m-51.90765565 194.69644422l1.36749008 0.34187179c-1.9942568 8.37587876-3.76059843 17.09363029-6.15370678 25.0136787-1.76634163 6.09672799-4.38736516 11.96554081-6.66651593 17.89133243l-0.51280818 0.51280914c-4.9001743 4.72923792-9.97128401 9.34451728-14.75750072 14.24469158-7.1793241 7.35026048-13.50396726 15.95405442-25.58346567 15.27030889-1.0825961 0-2.22217198 1.0825961-3.30476905 1.70936381s-3.41872567 2.79195991-5.1280885 2.84893773c-9.11660211 0.28489396-18.23320518 0.28489396-27.34980827 0a18.46112036 18.46112036 0 0 1-6.43860074-1.59540525c-2.62102353-1.02561731-5.1280885-2.56404474-7.74911205-3.58966204-1.19655369-0.45583035-3.81757723 0-3.87455601-0.51280915-1.53842645-7.92004842-11.73762564-3.0768529-14.75750072-10.82596591-2.27915077-5.69787644-9.62941125-9.80034763-14.3586482-14.98541492a9.51545366 9.51545366 0 0 0-12.13647719 0 12.59230754 12.59230754 0 0 1-4.9571531 3.1908105c-1.82332043 0.68374553-5.29902488 0-5.69787643 1.19655465-2.22217198 5.24204609-6.95140989 3.9885136-10.82596592 5.29902489-2.73498112 0.96863949-6.43860076 3.24778929-7.00838772 5.69787643a12.19345599 12.19345599 0 0 0 2.22217198 9.80034764c6.15370678 6.72349472 13.2190733 12.53532875 19.82861043 18.80299311a85.86700104 85.86700104 0 0 1 6.32464317 6.55255835c4.44434395 5.01413188 8.54681515 10.37013556 13.2760521 15.04239372s10.25617797 9.1735809 15.55520286 13.50396823c3.1338317 2.50706594 7.74911203 3.81757723 9.8003486 6.89443014 5.24204609 7.80609083 6.26766437 0 9.11660211-1.70936284a24.89972111 24.89972111 0 0 1 5.29902488-1.1965537 22.79150672 22.79150672 0 0 0 4.10247119-1.652385 100.62450079 100.62450079 0 0 1 16.63779994-9.34451728c5.69787644-1.88029921 9.51545366-8.60379393 16.63779994-6.83745231 0 0 0.51280914 0 0.51280914-0.3418718 0-5.69787644 5.01413188-3.70361964 8.03400599-4.67225912a14.75750073 14.75750073 0 0 0 3.24778929-1.70936283c2.05123559-1.19655369 3.93153482-2.62102353 6.03974921-3.70361964s3.41872567-0.96863949 4.90017429-1.76634163c5.69787644-3.0768529 10.88294471-6.55255834 16.52384235-9.34451825s11.39575287-4.8431955 16.75175656-7.23630289c0.34187276 0 0.45583035-0.74072431 0.8546819-0.96863949l6.72349375-3.81757723 5.69787741-3.36174687a20.56933475 20.56933475 0 0 1 3.01987411-1.88029922l17.89133243-7.40724024s0-0.39885155 0.45583035-0.51280817a80.34006001 80.34006001 0 0 1 16.35290597-8.88868791c6.0397492-1.70936284 8.14796358-4.55830154 7.86306962-10.25617797a49.22965429 49.22965429 0 0 0 0-8.20494238c-2.16519318-9.97128401 7.00838869-16.80873632 7.00838869-26.09627481 0-0.39885155 0.9116607-0.8546819 1.42446887-1.25353248a177.20396238 177.20396238 0 0 0 14.30167037-12.53532875 28.48938316 28.48938316 0 0 1 20.68329233-10.25617798h21.87984604a11.39575287 11.39575287 0 0 1 7.17932409 1.53842646c5.69787644 5.69787644 16.23894838 5.69787644 19.71465382 14.75750071a5.18506729 5.18506729 0 0 0 4.33038539 0 60.91030113 60.91030113 0 0 1 21.25308027-11.39575384 12.53532875 12.53532875 0 0 0 2.16519319-1.36749007c5.69787644-3.1338317 10.65502953-6.60953713 16.23894838-9.34451728s11.39575287-4.15944998 16.69477873-6.78047352a20.96818631 20.96818631 0 0 0 6.09672799-5.69787644 3.36174688 3.36174688 0 0 0 0-3.19081147c-1.9942568-2.50706594-4.44434395-4.61528033-6.49557955-7.1223453-3.47570447-4.21642878-6.72349472-8.60379393-10.19919918-12.87720151-2.73498112-3.36174688-5.69787644-6.60953713-8.48983635-9.80034763a46.15280042 46.15280042 0 0 1-7.92004841-8.48983635c-4.10247119-8.0909848-8.0909848-11.05388109-17.09363028-9.1166021a148.77155801 148.77155801 0 0 0-16.23894839 5.69787644 86.72168198 86.72168198 0 0 0-21.08214292 7.69213323 22.79150672 22.79150672 0 0 1-11.79460443 4.55830154c-0.79770311 0-2.22217198 0.56978794-2.27915077 0.96863949-0.51280914 5.69787644-4.8431955 3.47570447-7.80609082 4.15944998-1.48144766 0.39885155-4.15944998 0-4.38736517 0.91165974-2.05123559 5.69787644-6.95140989 4.15944998-10.9399235 4.95715309a10.14222039 10.14222039 0 0 0-5.0711097 1.70936283c-5.29902488 5.35600368-12.76324392 6.15370678-19.20184468 9.17358091a186.7763958 186.7763958 0 0 1-20.1704832 6.89443109c-0.51280914 0-0.74072431 1.0825961-1.19655369 1.48144766a18.68903553 18.68903553 0 0 1-4.78621671 3.24778929c-7.35026048 2.27915077-14.81447951 4.21642878-22.27869759 6.32464317-0.39885155 0-1.02561731 0.45583035-1.0825961 0.74072432-0.39885155 5.69787644-5.07110972 3.93153482-8.20494238 4.55830154a14.13073399 14.13073399 0 0 0-10.1422204 12.42137116c0.45583035 1.93727801 0.11395759 3.9885136 0.11395759 6.03974919z m218.05773792-432.69675111l-1.1965537-1.59540525H405.39273364c-1.36749008 0-3.01987508-0.39885155-4.04549239 0s-2.39310835 2.73498112-2.10821439 3.19081146a45.01322552 45.01322552 0 0 0 6.8944311 8.20494239c4.9001743 4.38736516 10.0852416 8.54681515 15.32728769 12.59230657a120.62404761 120.62404761 0 0 0 13.95979858 9.51545463c5.69787644 3.19081049 12.02251961 5.69787644 17.94831122 8.26192117s11.39575287 6.26766437 17.60643845 8.60379297c7.52119686 2.79195991 15.38426648 4.67225913 22.79150673 7.06536748 0.74072431 0 1.1395749 1.36749008 1.88029921 1.76634163a19.20184467 19.20184467 0 0 0 6.32464317 2.90591749c4.95715309 0.56978794 10.02826281 0.34187276 14.98541492 0.74072335a23.87410283 23.87410283 0 0 1 6.32464317 1.53842645c2.39310835 0.8546819 4.61528033 2.96289629 6.9514099 3.01987509h56.01012684a15.95405442 15.95405442 0 0 0 5.1280885-1.1395749 49.79944126 49.79944126 0 0 1 9.23056066-3.58966301c5.69787644-0.74072431 11.85158322-0.45583035 17.72039605-0.74072335 2.05123559 0 5.18506729 0 5.69787643-1.19655467 2.62102353-4.95715309 7.35026048-3.1338317 11.39575385-4.27340756 6.38162196-1.88029921 12.59230754-4.44434395 18.85997094-6.72349376 0 0 0-0.34187276 0.45583035-0.45583035a125.98005225 125.98005225 0 0 1 17.83435363-9.68639003c5.29902488-1.88029921 8.48983635-8.48983635 15.32728867-6.66651594 0 0 0.45583035-0.68374553 0.79770214-0.96863948 3.01987508-2.9059175 5.69787644-7.57817566 9.23056066-8.31889901 8.77473032-1.88029921 12.0794984-10.37013556 19.48673767-13.7888622 3.01987508-0.96863949 4.50132274-5.29902488 6.60953714-8.26192117zM588.92134016 770.38782153l-2.33612956-0.96863853c0.51280914 1.25353249 0.8546819 3.58966205 1.53842645 3.70361964a83.47389269 83.47389269 0 0 1 11.85158322 4.95715212c7.1793241 1.93727801 14.18771279 4.21642878 21.31005907 6.26766438a172.07587387 172.07587387 0 0 0 30.99644813 5.35600464 219.08335619 219.08335619 0 0 0 74.58520576-4.8431955l1.25353249-0.39885155c3.70361964-1.65238404 7.40723927-3.30476808 10.99690132-5.07110972s7.1793241-3.70361964 10.71200832-5.69787741 9.45847487-3.30476808 12.02251961-6.60953616a62.67664276 62.67664276 0 0 1 11.90856201-11.73762564 21.59495206 21.59495206 0 0 0 5.69787741-7.46421903c2.73498112-5.69787644 5.01413188-11.39575287 7.52119687-17.37852328 0-0.39885155 0.39885155-1.02561731 0.68374455-1.08259708 5.69787644-1.02561731 3.47570447-5.69787644 4.21642878-9.17358091s0.8546819-6.15370678 1.76634259-9.05962428 3.19081049-4.78621672 3.1908105-7.23630289c0.28489396-16.18196959 0-32.36393918 0-48.48892997a7.29328168 7.29328168 0 0 0-10.42711436-7.52119687 54.75659435 54.75659435 0 0 0-16.068012 7.86306963c-5.07110972 4.0454924-8.71775152 9.97128401-16.29592718 10.0852416-0.62676673 0-1.25353249 0.96863949-1.93727801 1.42446886a53.2181679 53.2181679 0 0 1-5.1850673 3.64664084c-1.31051128 0.74072431-3.24778929 0.68374553-4.33038636 1.70936284a34.18725961 34.18725961 0 0 1-16.40988477 10.71200832 5.69787644 5.69787644 0 0 0-2.27915076 1.25353345c-3.53268325 2.79195991-6.66651593 7.00838869-10.71200833 8.20494142-5.69787644 1.82332043-9.11660211 9.00264549-16.29592717 7.749113-0.28489396 0-0.79770311 0.39885155-1.08259611 0.68374456a22.27869758 22.27869758 0 0 1-15.27030987 10.14222039c-0.79770311 0-1.53842645 0.74072431-2.222171 1.31051225a42.79105354 42.79105354 0 0 1-9.40149705 8.09098479 81.19474191 81.19474191 0 0 0-20.22746198 12.42137019c-5.69787644 4.55830154-12.64928634 6.32464317-18.46112037 11.39575385a133.10239756 133.10239756 0 0 1-23.64618765 12.93417933c-0.74072431 0.39885155-1.25353249 1.19655369-1.93727801 1.65238501z m-241.64694775 174.86783378h50.76808075c1.9942568 0 4.61528033 0 5.69787644-0.96863949a69.96992445 69.96992445 0 0 0 11.39575385-12.36439237 20.39839837 20.39839837 0 0 1 17.09362932-10.14222038c7.69213324-0.28489396 15.44124528 0 23.19035827 0 11.39575287 0 16.18196959 9.05962428 23.3043149 15.44124624 3.70361964 3.36174688 5.69787644 8.66077273 13.39001065 8.54681417 33.21862108-0.68374553 66.49421999-0.28489396 99.76981889-0.34187179 1.59540525 0 3.70361964 0.45583035 4.61528033-0.34187276s2.22217198-3.93153482 1.59540525-4.67225912a48.94476032 48.94476032 0 0 0-7.35026048-6.78047352c-3.41872567-2.79195991-6.83745231-5.69787644-10.48409315-8.03400601a103.87229106 103.87229106 0 0 0-14.30167038-9.00264452c-5.69787644-2.79195991-11.85158322-4.61528033-17.83435363-6.8374523a0.79770311 0.79770311 0 0 1-0.56978793-0.39885156c-3.36174688-7.12234531-12.13647719-3.76059843-17.09362932-9.05962331-2.96289629-3.1338317-9.45847487-2.05123559-14.58656434-5.18506827a53.27514669 53.27514669 0 0 0-25.52648784-6.3246422c-29.79989444-0.74072431-59.59978986-0.68374553-89.39968333 0a115.09710755 115.09710755 0 0 0-23.81712501 5.69787645c-0.39885155 0-0.74072431 0.51280914-1.1395749 0.68374455-3.9885136 1.59540525-7.97702721 3.19081049-12.0794984 4.67225913-1.42446886 0.51280914-4.0454924 0-4.44434395 0.8546819-4.21642878 8.31889997-15.2133301 2.27915077-20.17048319 9.85732642-1.19655369 1.82332043-6.09672799 0.51280914-8.71775152 4.50132274s-7.46421807 4.78621672-11.39575288 7.12234531-8.48983635 5.07110972-12.53532875 7.92004842-8.26192117 6.32464317-12.30741357 9.57243244c-1.42446886 1.1395749-2.62102353 2.50706594-3.9885136 3.76059941a18.51809915 18.51809915 0 0 0 5.69787644 2.16519318c17.03665149-0.22791517 34.13028081-0.34187276 51.22391108-0.34187276z" fill="#11dbd5" p-id="3760"></path></svg>